<svg xmlns="http://www.w3.org/2000/svg"
    viewBox="0, 0, 200, 350"
    width="100%" 
    height="100%" 
    style="position:absolute;top:0;left:0">
    <g>
        <path d="M-0.1049498808481391 0.5265003241083157 C77.20609431927969 -2.433241688141696, 154.4962178894257 1.8471272637853207, 200.42293943510606 1.7270206223334852 M0.2164530540209544 -0.5154499655952646 C41.976042351591886 -1.814135718581512, 83.76374430689692 -2.3161572663757997, 200.6225083110617 1.0527301866690595 M199.46214770917157 -0.690682391618031 C202.71722315305558 98.45787618795025, 202.45046201120462 195.62186086856352, 201.62252939344137 350.7704148013674 M200.4978323793272 -0.8763201950720868 C196.38532209125745 128.389896121884, 198.13155510028164 256.7953667164992, 199.55492052622353 349.82653336110354 M199.01589736189933 351.964617634464 C150.15844974442734 352.4574516009488, 98.56682153096901 350.3619843261248, -1.7539611484632807 347.73374461170005 M200.63071257942534 350.5358468590065 C123.43536451986274 353.11994380026533, 44.2208030267034 350.64383323368935, 0.9535330092008689 349.59183456843994 M-0.47658836298811186 349.455192453211 C1.7099946392469643 252.29805886152468, 4.064589034107783 152.94251414600686, -0.9327224140679372 -1.5202743921443722 M0.8486856468516023 349.76490526975107 C0.3312246556019791 237.5202515959777, 0.4781525828301221 125.90787544202416, 0.09788583413160501 -0.006425947101652979" stroke="#000" stroke-width="4" fill="none"></path>
    </g>
</svg>
