<?xml version="1.0" encoding="utf-8"?>
<svg 
    width="200"
    height="60" 
    style="position: absolute; top: 0px; left: 0px;"
    xmlns="http://www.w3.org/2000/svg"
>
    <g>
        <path 
            d="M11.448242157706215 2.6520563536972235 C80.28824179590197 -4.051786389946102, 144.59750398972204 0.9549277073020312, 191.12544379999628 -2.6349418213563163 M8.780100420000487 -0.22053093720027694 C68.78272643110787 -1.3307278922634038, 128.7633200318947 -1.5216005354223392, 189.71868909580843 1.0931549927408764 M190 0 C197.77298008350095 1.2134403486852983, 197.77174981823327 6.616751550362547, 199.908247549008 11.547076979767107 M189.62615552824707 -0.08932196498735245 C197.50165005804874 -1.8103456493971986, 197.4451153789306 7.444629176713217, 197.23620090171434 7.823550199883354 M200.59620588936536 10.354675507983224 C199.04860831674577 18.24086224619889, 202.44054616659434 31.533121021834923, 198.4671489139664 48.85690843648044 M199.37640273361916 10.990128640841116 C198.9882134868235 24.61928151656418, 199.3494531913201 40.395732471054295, 199.46931890956944 50.66174344673691 M200 50 C199.00108410382987 54.94624963811602, 193.0078625219381 59.148757809238894, 192.96846085528813 62.65540961057773 M201.21906183784552 47.544645765524436 C196.94601982005372 55.75664111951495, 194.68188408950977 57.468510968291795, 190.7479452875705 62.297276296404114 M192.89928070488224 58.79596873356923 C125.55948560081904 62.55548210192771, 62.39410956616238 60.052741672690736, 9.996799373094206 62.110492032384506 M189.82067748450828 59.73551965133821 C122.53598957889913 58.319836679449246, 52.19531690154521 58.19249174534086, 8.513742509619057 58.7451432650537 M10 60 C1.630204617980826 57.31237049028992, -2.86694451103174 53.91323541619141, 1.7385784683310612 50.43376562449727 M11.009267749091157 62.718512813449514 C1.5619742928318257 61.00714537527904, 0.6301157729846469 57.547160580468116, 3.1940815928039825 50.092137707968455 M0.37303281508458386 52.28652664518149 C2.2962460751285594 43.09405458734193, -2.841507663391517 29.692196803752523, -1.067252128573658 11.265562613099963 M0.2040042615490888 48.78483670139698 C0.33173508538683405 37.043151475073486, -0.7902705291895701 23.592349744914227, -0.002762573612083208 9.620705309278241 M0 10 C-2.6673625566028845 6.799896643370706, 6.068733261702388 2.0420787105918237, 10.539931332906015 -1.420999612770303 M1.9268923597243381 9.599551502573862 C0.1284009071722465 2.247221779573901, 5.7145895019047845 2.3220447340854573, 9.409149991164252 1.9711198388271791 M10 0 C10 0, 10 0, 10 0 M10 0 C10 0, 10 0, 10 0"
            stroke="#000"
            stroke-width="4" 
            fill="none"
        >
        </path>
    </g>
</svg>