<?xml version="1.0" encoding="utf-8"?>
<svg 
    width="200" 
    height="60" 
    style="position:absolute;top:0;left:0"
    xmlns="http://www.w3.org/2000/svg"
>
    <g>
        <path 
            d="M12.818177891766009 2.3118142118727913 C62.432128194062585 -3.033939331064567, 115.04228148461205 0.15423423079735665, 189.63005921553685 -1.8824924575595143 M8.675966971209096 1.4947515118453645 C57.31731924837344 -2.66847493383275, 104.29654836420247 -1.8126894692510511, 189.34143166664867 1.176700882957682 M190 0 C195.96266081683385 0.7625873600357623, 198.36237122979426 7.201898085161183, 198.90777369613664 9.01404634364799 M187.9445931189931 1.9102635762240687 C198.01611878595986 2.9890620581929834, 199.5567559637044 2.8269832571973534, 200.67517823074084 7.363260321018184 M200.33855286980508 10.152945000756304 C198.99188755592246 21.944544714197995, 196.67726742044908 33.12546462216255, 198.50008453979254 49.124339876355876 M201.10710288974417 10.272486470858864 C199.94894530511246 20.970156288695986, 199.7046969571227 32.89180167171349, 199.24707159613146 50.8254338698572 M200 50 C197.91640654440414 55.30939210670448, 192.86309563455416 59.11873278587289, 191.36217112380547 62.496417268542146 M200.98171424028186 50.37362061940411 C197.779261412465 53.932417248755854, 195.65406131919408 57.26603192024245, 188.134556445769 61.49379190951237 M191.15981486293603 60.319715911380364 C138.8720139732454 56.61560962070935, 89.79039123453838 56.438352361023234, 10.863713670206904 57.06236671385184 M190.88294873753557 60.48071466934086 C147.0104919231681 60.40228027652366, 104.28794102821196 60.09391796226095, 8.96188720190506 60.92563783029067 M10 60 C5.490706462528641 61.50967452621459, -0.6411158592993271 53.1884828847848, -2.5481257583477994 50.67033714373365 M11.124514227426543 58.6297101697347 C7.376957755633852 57.709709350100276, -2.9105008685900993 53.188710893470365, -0.893988052709365 50.89508239321342 M-0.5573119280347691 50.061849336086546 C-1.6388260810158088 38.94937791952424, -2.3281144320360703 23.51946717919471, -1.7346315078717591 9.737641354185941 M-1.483465671107571 51.005350926294405 C0.2563513938137237 36.06447934664516, 1.1347719075133418 20.597869173068162, 0.12983256245164343 9.135402042116432 M0 10 C-1.6149684381600664 3.0908854348756565, 7.078372799996072 1.6551821885367364, 7.552341699810896 -0.99295559885141 M1.5458335250417643 7.559406565622339 C2.4603767942378894 1.3530838597681512, 5.200842676460008 2.478693292306719, 12.487096188183624 -2.0110068115497914 M10 0 C10 0, 10 0, 10 0 M10 0 C10 0, 10 0, 10 0" 
            stroke="#000" 
            stroke-width="4" 
            fill="none">
        </path>
    </g>
</svg>