<?xml version="1.0" encoding="utf-8"?>
<svg 
    width="100" 
    height="100" 
    style="position:absolute;top:0;left:0"
    xmlns="http://www.w3.org/2000/svg"
>
    <g>
        <path d="M-1.0300178522978325 2.512088056381276 C22.95136076507255 -0.5193481927256649, 48.83838583828085 -1.0108601825826835, 97.92111596262615 -2.882026976901442 M-0.7149755609070645 1.1483874679883344 C25.47392862736866 -0.25182384019702775, 50.197557094716494 0.22549669769846992, 100.9392241152833 -0.6198798397471152 M102.0122654741629 -2.899632785696829 C100.01571351817925 23.07111497574917, 102.11342521112935 41.969964786612096, 98.48575205011485 97.09804099368415 M98.5048152937596 -1.3017409307183256 C97.65317326296439 30.601650999862738, 97.26388432332263 61.21419844280463, 99.92590392944591 100.37882625389825 M99.57469538051194 99.52865040525522 C72.62590009133574 100.35121827382596, 45.364250911306506 102.2174715520665, -2.197365422796441 102.01285923178018 M101.06124469071341 99.42232474746926 C80.29211972051752 101.79967103393896, 60.52674878942606 100.57040597517134, -0.9459850722457673 98.92614637146819 M-1.6408790948495025 102.16156444848528 C3.5896297432861735 66.35466029254754, -0.6204416950976238 38.30193292464493, -1.6129755079958041 0.7717517756361381 M0.9387236608250344 100.83920376686352 C0.05522662988371807 68.70087495433374, 0.831929741083616 37.358789997554496, -0.7110170823847247 0.9525790824925302" stroke="#000" stroke-width="4" fill="none"></path>
    </g>
</svg>