<?xml version="1.0" encoding="utf-8"?>
<svg 
    width="200"
    height="60" 
    style="position: absolute; top: 0px; left: 0px;"
    xmlns="http://www.w3.org/2000/svg"
>
    <g>
        <path 
            d="M1.3020608618862763 0.4325298971230534 C48.53379534778279 -0.4086647148910547, 93.0474141996623 1.104895560829796, 198.51113516192976 -2.274743755819872 M-0.17888417710645663 -0.43449560166150886 C68.87747300994036 3.3562591496872387, 136.11440616965442 1.5868646564439715, 200.98178742413205 -1.2151337065712127 M199.91057472304757 -1.4153707511012457 C200.86641583268383 22.87432036731875, 201.25087967690337 41.579215407178935, 201.9460218784884 57.06033214690981 M199.19494976101237 -0.28954986593777376 C199.48850820912534 18.12081970520449, 200.27165189153322 34.2809722544418, 201.32037618266483 59.401676220899176 M199.6274655054531 60.36765194438937 C139.9696623898475 57.03972088620354, 83.00165662379374 57.90991771359638, -1.7308624641852846 61.53062404923486 M199.17755616725077 58.72286704251819 C144.81961157367587 59.47524385852579, 89.60708354853071 57.79259046179136, -1.0388911008877013 59.68457336192177 M1.8960477614047662 59.639886637328274 C-2.5868929573223225 34.29983152059242, 2.6099106449617797 13.478442252264292, 2.9822914159670235 1.2222138790006094 M0.17317954206313435 58.83684165782203 C-1.2105381465714515 44.27622240872315, -0.6819729078442017 30.396972790634923, -1.399559675763522 0.06602679344225759"
            stroke="#000"
            stroke-width="4" 
            fill="none"
        >
        </path>
    </g>
</svg>