<?xml version="1.0" encoding="utf-8"?>
<svg 
    width="200" 
    height="60" 
    style="position:absolute;top:0;left:0"
    xmlns="http://www.w3.org/2000/svg"
>
    <g>
        <path 
            d="M1.614523211237044 0.027191271382953637 C71.46120922369154 -0.5556494383248634, 146.93934710468406 -0.5123194519593399, 199.68185470586653 -2.525481683435965 M0.24788274402401445 0.34565021765261505 C53.71063335178195 -3.4227692143015958, 108.78314829277835 -2.033651366269954, 200.46328560831924 -0.7147139120265918 M199.79655872381247 1.135555624685709 C198.83536398079428 22.058208543590492, 197.69231287649427 44.56125695555107, 201.63212846958066 59.75007440920212 M198.7951852397086 0.8953977084840646 C199.3354060332282 19.77822370292998, 200.52259523225865 38.71486901934971, 198.98280053854228 58.6626937180535 M200.90848351082116 59.81719241471439 C127.59848334362653 59.52051484479093, 49.17332616230297 59.94476621378109, 1.6558687927965117 57.676040897796646 M198.77040897386647 61.020822762693705 C130.85012439036066 57.19400518440102, 65.46207391563469 58.27606261223273, -0.12562381971424216 60.85115412881033 M-2.5072066073236665 60.24869866228912 C-2.0567080239767144 38.36350695227884, 1.2129021872476027 18.830238815835905, 2.447842393838563 -0.7548770768688362 M0.8990194264543311 61.43095287727564 C0.23664116392641243 38.698107387795936, 0.010695244529111414 14.076076711217949, 0.17896436030089435 0.5819894552335262" 
            stroke="#000" 
            stroke-width="4" 
            fill="none">
        </path>
    </g>
</svg>