<?xml version="1.0" encoding="UTF-8"?>
<!-- Uploaded to: ICON Repo, www.svgrepo.com, Generator: ICON Repo Mixer Tools -->
<svg fill="#000000" width="800px" height="800px" version="1.1" viewBox="144 144 512 512" xmlns="http://www.w3.org/2000/svg">
 <path d="m573.15 380.82c0.85156 4.0859-0.90234 8.2695-4.4062 10.527-24.367 15.695-53.172 31.461-82.551 47.469 5.0391 22.488 8.8086 43.461 10.289 60.465 0.81641 9.4062 0.97266 18.008 0.10938 25.156-0.80469 6.6641-2.7266 14.234-8.0078 19.234-2.8281 2.6836-6.1055 2.8438-7.5898 2.7461-1.5117-0.09375-2.6445-0.51172-3.1172-0.69531-1.0078-0.40234-1.7383-0.88672-1.9648-1.0352-0.58594-0.38672-1.0742-0.78906-1.3203-0.99219-0.57422-0.48828-1.2383-1.0938-1.8828-1.7031-1.3398-1.2578-3.1445-3.0312-5.2266-5.1094-4.1758-4.168-9.7031-9.8008-15.305-15.562-11.207-11.516-22.875-23.68-25.012-25.938-5.1875-5.4766-10.047-10.562-14.629-15.309-31.262 18.602-59.629 37.758-80.926 57.926-3.2188 3.0469-8.0508 3.6367-11.902 1.4453-3.8555-2.1875-5.8281-6.6367-4.8594-10.961 3.957-17.68 4.9414-28.734 5.9766-40.414 0.30859-3.457 0.62109-6.9688 1.0156-10.719 1.6367-15.547 4.6172-33.758 14.246-66.125-8.957-6.4023-18.543-12.793-30.215-20.578-14.156-9.4414-31.211-20.82-53.496-36.477-3.5938-2.5273-5.1406-7.0938-3.8125-11.281 1.3242-4.1914 5.2109-7.0391 9.6055-7.0391 39.574 0 72.105 1.582 101.76 4.3672 10.43-28.785 23.816-63.91 41.062-107.3 0.070312-0.36328 0.16406-0.74609 0.28516-1.1406 0.32812-1.0586 2.0195-5.8672 7.6367-7.1289 5.0117-1.1289 8.4648 1.7734 9.0391 2.2578l0.003906 0.003906c1.0742 0.90234 1.8008 1.8633 2.1719 2.375 1.4141 1.9648 2.832 4.9414 4.0977 7.8008 2.7734 6.2578 6.5742 16.105 10.953 28.312 8.3047 23.16 18.941 55.535 29.043 89.879 7.3203 1.3047 14.777 2.6562 22.434 4.043 23.434 4.2422 48.789 8.832 78.246 13.617 4.1211 0.66797 7.3984 3.8047 8.25 7.8867zm-85.613 147.43-0.007812-0.003906c0.039062 0.03125 0.042969 0.035156 0.007812 0.003906zm-66.641-292.55v-0.10156-0.003906 0.10547z" fill-rule="evenodd"/>
</svg>